<svg xmlns="http://www.w3.org/2000/svg" xmlns:xlink="http://www.w3.org/1999/xlink" version="1.1" id="Layer_1" x="0px" y="0px" width="200px" height="200px" viewBox="0 0 200 200" enable-background="new 0 0 200 200" xml:space="preserve"><g opacity="0.5"><circle fill="none" stroke="#0A5263" stroke-width="6" stroke-miterlimit="10" stroke-dasharray="24.5372,24.5372" cx="100" cy="100" r="93.7"><animateTransform attributeName="transform" attributeype="XML" type="rotate" from="0 100 100" to="180 100 100" dur="1s" id="one" begin="0; two.end"/><animateTransform attributeName="transform" attributeype="XML" type="rotate" from="180 100 100" to="0 100 100" dur="1s" begin="one.end" id="two"/></circle></g><circle fill="#0A5263" cx="100" cy="100" r="84.4"/><path fill="#FFFFFF" d="M151.34 74.189L151.34 74.189l-20.539-35.631l-5.098 0.02l-10.146 15.34l5.099-0.021l6.759-10.227 l1.211-0.003l17.608 30.539h-0.006c-0.173 0-0.34 0.011-0.524 0.027c-3.9-3.661-9.351-5.09-14.791-5.072l-25.504 0.1 l-10.201 0.039l-25.543 0.093c-5.418 0.021-10.844 1.487-14.717 5.181c-0.174-0.016-0.349-0.023-0.521-0.023H54.42l17.377-30.667 l1.215-0.006l6.837 10.176l5.101-0.019L74.693 38.764l-5.101 0.02L49.319 74.564h-0.005c-2.814 0.01-5.087 2.284-5.077 5.1 c0.01 2.8 2.3 5.1 5.1 5.08h0.435c-0.277 1.566-0.418 3.27-0.41 5.112c0.056 15.3 10.3 20.4 20.4 20.3 c8.478-0.03 20.444-2.627 22.151-13.792c0 0 0.777-6.694 8.427-6.722c7.651-0.028 8.5 6.7 8.5 6.7 c1.79 11.2 13.8 13.7 22.2 13.629c10.23-0.038 20.414-5.18 20.356-20.491c-0.005-1.841-0.159-3.533-0.445-5.087l0.433-0.002 c2.814-0.008 5.088-2.276 5.076-5.116C156.443 76.5 154.2 74.2 151.3 74.2"><animateTransform id="new" attributeName="transform" attributeype="XML" type="translate" values="0,7;0,-7;0,7" dur="1s" repeatCount="indefinite"/></path><path fill="#FFFFFF" stroke="#FFFFFF" stroke-miterlimit="10" d="M60.855 136.229c0 2.785-1.532 2.889-3.099 2.889h-7.624v1.045 c0 2.6 2.1 4.2 4.9 4.213c2.611 0 3.342-1.358 4.212-1.358c0.696 0 1.2 0.8 1.2 1.323c0 0.905-2.124 2.471-5.5 2.5 c-4.525 0-7.728-2.715-7.728-6.754v-3.654c0-3.551 3.098-6.579 6.928-6.579C57.722 129.8 60.9 132.5 60.9 136.229z M56.574 137.168c1.218 0 1.53-0.209 1.53-1.113c0-2.055-1.67-3.934-3.968-3.934c-2.192 0-4.003 1.67-4.003 3.794v1.253H56.574z"><animateTransform id="new" attributeName="transform" attributeype="XML" type="translate" values="0,7;0,-7;0,7" dur="1s" repeatCount="indefinite"/></path><path fill="#FFFFFF" stroke="#FFFFFF" stroke-miterlimit="10" d="M76.908 136.438c0-2.367-1.67-4.004-3.62-4.004 c-1.844 0-3.724 1.463-3.724 4.073v8.981c0 0.522-0.662 1.045-1.462 1.045c-0.836 0-1.428-0.522-1.428-1.045v-14.447 c0-0.592 0.592-1.01 1.428-1.01c0.73 0 1.3 0.4 1.3 1.01v1.428c0.766-1.357 2.332-2.646 4.63-2.646 c2.194 0 4 1.4 4.8 3.481c1.218-2.367 3.272-3.481 5.292-3.481c3.062 0 6 2.4 6 6.684v8.981 c0 0.522-0.662 1.045-1.462 1.045c-0.766 0-1.428-0.522-1.428-1.045v-8.981c0-2.681-1.88-4.073-3.655-4.073 c-1.845 0-3.725 1.531-3.725 3.969v9.121c0 0.695-0.73 1.01-1.462 1.01c-0.662 0-1.428-0.314-1.428-1.01V136.438z"><animateTransform id="new" attributeName="transform" attributeype="XML" type="translate" begin=".1" values="0,7;0,-7;0,7" dur="1s" repeatCount="indefinite"/></path><path fill="#FFFFFF" stroke="#FFFFFF" stroke-miterlimit="10" d="M109.778 136.507v3.55c0 3.518-3.202 6.754-6.892 6.8 c-3.691 0-6.858-3.201-6.858-6.754v-3.55c0-3.55 3.098-6.684 6.858-6.684C106.576 129.8 109.8 132.9 109.8 136.507z M106.889 136.507c0-2.054-1.774-4.073-4.002-4.073c-2.229 0-3.97 2.02-3.97 4.073v3.55c0 2.1 1.8 4.1 4 4.1 c2.191 0 4.002-2.019 4.002-4.144V136.507z"><animateTransform id="new" attributeName="transform" attributeype="XML" type="translate" values="0,7;0,-7;0,7" dur="1s" begin=".2" repeatCount="indefinite"/></path><path fill="#FFFFFF" stroke="#FFFFFF" stroke-miterlimit="10" d="M118.696 141.276c0 2 0.7 2.7 2.9 2.715h1.078 c0.801 0 1.3 0.6 1.3 1.254c0 0.661-0.453 1.288-1.254 1.288h-1.078c-3.76 0-5.779-1.602-5.779-5.257v-17.929 c0-0.592 0.766-1.01 1.427-1.01c0.731 0 1.5 0.4 1.5 1.01v6.684h4.386c0.521 0 0.9 0.6 0.9 1.1 c0 0.593-0.348 1.114-0.869 1.114h-4.386V141.276z"><animateTransform id="new" attributeName="transform" attributeype="XML" type="translate" values="0,7;0,-7;0,7" dur="1s" begin=".3" repeatCount="indefinite"/></path>
<path fill="#FFFFFF" stroke="#FFFFFF" stroke-miterlimit="10" d="M127.785 131.599c-0.069-0.104-0.139-0.243-0.139-0.384 c0-0.766 1.113-1.392 1.88-1.392c0.418 0 0.8 0.2 0.9 0.592l4.594 12.114l4.144-12.114c0.174-0.418 0.522-0.592 0.904-0.592 c0.696 0 1.9 0.6 1.9 1.427c0 0.105-0.034 0.244-0.104 0.349l-5.292 14.168c-1.462 3.899-3.168 8.738-7.554 8.7 c-0.767 0-1.358-0.243-1.358-1.288c0-0.662 0.21-1.254 0.836-1.254c2.02 0 4.316-2.506 5.048-6.266L127.785 131.599z"><animateTransform id="new" attributeName="transform" attributeype="XML" type="translate" values="0,7;0,-7;0,7" dur="1s" begin=".4" repeatCount="indefinite"/></path><path fill="#FFFFFF" stroke="#FFFFFF" stroke-miterlimit="10" d="M155.013 142.285c0-4.212-8.494-1.811-8.494-7.588 c0-2.299 1.532-4.874 5.71-4.874c2.436 0 4.9 0.9 4.9 1.88c0 0.452-0.453 1.462-1.148 1.462c-0.628 0-1.706-1.01-3.727-1.01 c-2.332 0-3.168 1.392-3.168 2.437c0 3.6 8.5 1.3 8.5 7.555c0 2.854-2.089 4.664-5.813 4.664c-3.342 0-5.71-1.461-5.71-2.646 c0-0.521 0.418-1.321 1.01-1.321c0.8 0 1.5 1.6 4.6 1.636C154.213 144.5 155 143.4 155 142.285z"><animateTransform id="new" attributeName="transform" attributeype="XML" type="translate" values="0,7;0,-7;0,7" dur="1s" begin=".5" repeatCount="indefinite"/></path></svg>
